# xmcd
#
# Track frame offsets:
#	150
#	21918
#	51065
#	70096
#	88696
#	113272
#	156064
#	180567
#	201896
#
# Disc length: 4209 seconds
#
# Revision: 12
# Processed by: cddbd v1.5.2PL0 Copyright (c) Steve Scherf et al.
# Submitted via: Jack! The Knife 20 Magnifico
#
DISCID=69106f09
DTITLE=Domain - Stardawn
DYEAR=2006
DGENRE=Heavy Metal
TTITLE0=All In The Name Of Fire
TTITLE1=Temple Of The Earth
TTITLE2=Don't Pay The Ferryman
TTITLE3=I Ain't No Hero
TTITLE4=Headfirst Into Disaster
TTITLE5=Stardawn
TTITLE6=Chrystal Stone Island (Warpath Pt. II)
TTITLE7=Help Me Through The Storm
TTITLE8=Shadowhall
EXTD=
EXTT0=Ritt, Lange, Mayer, Schulz
EXTT1=Ritt, Lange, Mayer, Schulz
EXTT2=Chris de Burgh
EXTT3=Ritt, Lange
EXTT4=Ritt, Lange, Mayer, Schulz
EXTT5=Ritt, Lange, Mayer, Schulz
EXTT6=Axel "Ironfinger" Ritt
EXTT7=Axel "Ironfinger" Ritt
EXTT8=Axel "Ironfinger" Ritt
PLAYORDER=
